<svg id="Layer_1" data-name="Layer 1" xmlns="http://www.w3.org/2000/svg" xmlns:xlink="http://www.w3.org/1999/xlink" viewBox="0 0 1224.5 1401.88"><defs><style>.cls-1{fill:none;}.cls-2{clip-path:url(#clip-path);}.cls-3{fill:url(#linear-gradient);}.cls-4{fill:url(#linear-gradient-2);}.cls-5{fill:url(#linear-gradient-3);}.cls-6{fill:#fff;}.cls-7{fill:#bbefbb;}.cls-8{fill:url(#linear-gradient-4);}.cls-9{fill:url(#linear-gradient-5);}.cls-10{fill:url(#linear-gradient-6);}</style><clipPath id="clip-path" transform="translate(-381.84 -348.24)"><path class="cls-1" d="M1597.1,374s4-25.74-34.66-25.74-382.78,12.19-798.59,128c0,0-138.1,30.32-231,81.86C464.38,596.08,420.37,646,420,716.53c-1,166.32,4.95,332.65,4.95,332.65s-2,163.35,58.42,260.37,151.47,186.13,300,289.09c128.71,79.2,182.17,97,230.68,101s184.14-79.2,227.71-110.88S1413,1469.94,1510,1340.23c52-69.5,76.61-154.56,86.27-226A899.57,899.57,0,0,0,1603,960.08Z"/></clipPath><linearGradient id="linear-gradient" x1="508.36" y1="1294.55" x2="1611.55" y2="657.62" gradientUnits="userSpaceOnUse"><stop offset="0" stop-color="#34aa68"/><stop offset="0.68" stop-color="#bed13f"/><stop offset="1" stop-color="#fbe32d"/></linearGradient><linearGradient id="linear-gradient-2" x1="551.91" y1="1370.01" x2="1654.59" y2="733.37" gradientUnits="userSpaceOnUse"><stop offset="0" stop-color="#13915a"/><stop offset="0.68" stop-color="#b6bb3f"/><stop offset="1" stop-color="#ffce33"/></linearGradient><linearGradient id="linear-gradient-3" x1="973.84" y1="821.55" x2="1558.99" y2="1254.64" gradientUnits="userSpaceOnUse"><stop offset="0" stop-color="#ffdb26" stop-opacity="0"/><stop offset="0.19" stop-color="#fec725" stop-opacity="0.17"/><stop offset="0.6" stop-color="#fd9624" stop-opacity="0.58"/><stop offset="1" stop-color="#fc6522"/></linearGradient><linearGradient id="linear-gradient-4" x1="385.72" y1="1237.52" x2="1063.27" y2="1312.24" gradientUnits="userSpaceOnUse"><stop offset="0.08" stop-color="#52c17e"/><stop offset="0.16" stop-color="#4cba79"/><stop offset="1" stop-color="#127244"/></linearGradient><linearGradient id="linear-gradient-5" x1="1418.5" y1="1267.03" x2="1471.86" y2="1318.06" gradientUnits="userSpaceOnUse"><stop offset="0" stop-color="#f8711d" stop-opacity="0"/><stop offset="0.11" stop-color="#f87421" stop-opacity="0.02"/><stop offset="0.23" stop-color="#f97c2e" stop-opacity="0.08"/><stop offset="0.36" stop-color="#f98943" stop-opacity="0.17"/><stop offset="0.5" stop-color="#fa9b60" stop-opacity="0.3"/><stop offset="0.65" stop-color="#fbb386" stop-opacity="0.47"/><stop offset="0.8" stop-color="#fdd0b4" stop-opacity="0.67"/><stop offset="0.95" stop-color="#fef2ea" stop-opacity="0.91"/><stop offset="1" stop-color="#fff"/></linearGradient><linearGradient id="linear-gradient-6" x1="888.9" y1="1628.68" x2="1582.51" y2="1324.54" gradientUnits="userSpaceOnUse"><stop offset="0" stop-color="#065637"/><stop offset="0.03" stop-color="#125836"/><stop offset="0.33" stop-color="#73642e"/><stop offset="0.57" stop-color="#bb6e29"/><stop offset="0.75" stop-color="#e77425"/><stop offset="0.83" stop-color="#f87624"/></linearGradient></defs><title>LOGO_Saviora_Icon</title><g class="cls-2"><path class="cls-3" d="M1597.1,374s4-25.74-34.66-25.74-382.78,12.19-798.59,128c0,0-138.1,30.32-231,81.86C464.38,596.08,420.37,646,420,716.53c-1,166.32,4.95,332.65,4.95,332.65s-2,163.35,58.42,260.37,151.47,186.13,300,289.09c128.71,79.2,182.17,97,230.68,101s184.14-79.2,227.71-110.88S1413,1469.94,1510,1340.23c52-69.5,76.61-154.56,86.27-226A899.57,899.57,0,0,0,1603,960.08Z" transform="translate(-381.84 -348.24)"/><path class="cls-4" d="M1597.1,374s-1-19.93-11.64-14.36c-98.75,51.73-501.94,337.6-953.39,518.78-223.34,89.63-212.2-85.26-211.85-49,1.17,121.22,4.68,219.76,4.68,219.76s-2,163.35,58.42,260.37,151.47,186.13,300,289.09c128.71,79.2,182.17,97,230.68,101s184.14-79.2,227.71-110.88S1413,1469.94,1510,1340.23c52-69.5,76.61-154.56,86.27-226A899.57,899.57,0,0,0,1603,960.08Z" transform="translate(-381.84 -348.24)"/><path class="cls-5" d="M1597.1,374s-1-19.93-11.64-14.36c-98.75,51.73-501.94,337.6-953.39,518.78-223.34,89.63-212.2-85.26-211.85-49,1.17,121.22,4.68,219.76,4.68,219.76s-2,163.35,58.42,260.37,151.47,186.13,300,289.09c128.71,79.2,182.17,97,230.68,101s184.14-79.2,227.71-110.88S1413,1469.94,1510,1340.23c52-69.5,76.61-154.56,86.27-226A899.57,899.57,0,0,0,1603,960.08Z" transform="translate(-381.84 -348.24)"/><rect class="cls-6" x="880.13" y="587.09" width="166.32" height="546.49"/><rect class="cls-6" x="666.29" y="741.53" width="166.32" height="546.49"/><rect class="cls-6" x="466.3" y="855.38" width="156.42" height="546.49"/><path class="cls-6" d="M544.2,1022.45s259.39-21.78,483.14-129.7,323.73-207.9,323.73-207.9,1.49-6.93-10.39-15.35-39.6-31.18-39.6-31.18-14.85-7.43,15.34-15.35,158.41-50,174.74-55.44,39.6-12.38,37.62,17.33-10.39,146.52-12.37,165.33S1510,790.29,1477.3,769s-38.11-12.87-44-7.43-85.64,90.59-204.94,170.78S945.41,1114.4,667,1169,544.2,1022.45,544.2,1022.45Z" transform="translate(-381.84 -348.24)"/><path class="cls-7" d="M411.54,697.22s1.48,175.24,213.84,417.3c153.9,175.42,411.36,341.56,601.45,417.29,120.3,47.94-68.32,25.25-68.32,25.25s-175.28-70.79-398-253.2c-231.17-189.34-320.76-360.12-349-504.17S411.54,697.22,411.54,697.22Z" transform="translate(-381.84 -348.24)"/><path class="cls-8" d="M415.5,819.49s17.82,98,96,215.83,261.37,312.85,604.91,502.93-6.93,163.35-6.93,163.35-57.42,39.61-160.39,17.82S540.24,1515.48,463,1360.05s-81.18-307.9-81.18-338.59,15.84-202,15.84-202Z" transform="translate(-381.84 -348.24)"/><path class="cls-9" d="M1319.39,1443.21c34.07-20.15,198.33-104.09,243.55-256.42,94-316.87-247.51,7.92-247.51,7.92s-107.22,237.89-77.22,251.47C1254.77,1453.67,1285.32,1463.35,1319.39,1443.21Z" transform="translate(-381.84 -348.24)"/><path class="cls-10" d="M777.85,1609.54s78.21,42.57,218.79-5,296-151.47,394-244.54,156.43-173.25,179.2-214.83,40.59,2,35.64,45.54-90.09,282.16-190.08,356.41S1162,1720.42,1095.65,1722.4s-111.88,14.85-149.5,0-160.38-86.13-163.35-94.05A131.91,131.91,0,0,1,777.85,1609.54Z" transform="translate(-381.84 -348.24)"/></g></svg>