<svg xmlns="http://www.w3.org/2000/svg" xmlns:xlink="http://www.w3.org/1999/xlink" viewBox="0 0 1994.18 708.51"><defs><style>.cls-1{fill:none;}.cls-2{clip-path:url(#clip-path);}.cls-3{fill:url(#linear-gradient);}.cls-4{fill:url(#linear-gradient-2);}.cls-5{fill:url(#linear-gradient-3);}.cls-6{fill:#fff;}.cls-7{fill:#bbefbb;}.cls-8{fill:url(#linear-gradient-4);}.cls-9{fill:url(#linear-gradient-5);}.cls-10{fill:url(#linear-gradient-6);}.cls-11{fill:#231f20;}</style><clipPath id="clip-path"><path class="cls-1" d="M614.2,13s2-13-17.52-13S403.22,6.16,193.07,64.7c0,0-69.8,15.33-116.76,41.38-34.59,19.18-56.83,44.41-57,80.05-.5,84.07,2.51,168.13,2.51,168.13s-1,82.56,29.52,131.59S127.84,579.92,202.9,632c65,40,92.06,49,116.58,51s93.07-40,115.09-56,86.56-60,135.58-125.59c26.27-35.13,38.73-78.12,43.61-114.22a455.17,455.17,0,0,0,3.44-77.92Z"/></clipPath><linearGradient id="linear-gradient" x1="63.94" y1="478.27" x2="621.5" y2="156.36" gradientUnits="userSpaceOnUse"><stop offset="0" stop-color="#34aa68"/><stop offset="0.68" stop-color="#bed13f"/><stop offset="1" stop-color="#fbe32d"/></linearGradient><linearGradient id="linear-gradient-2" x1="85.95" y1="516.41" x2="643.26" y2="194.65" gradientUnits="userSpaceOnUse"><stop offset="0" stop-color="#13915a"/><stop offset="0.68" stop-color="#b6bb3f"/><stop offset="1" stop-color="#ffce33"/></linearGradient><linearGradient id="linear-gradient-3" x1="299.2" y1="239.21" x2="594.94" y2="458.1" gradientUnits="userSpaceOnUse"><stop offset="0" stop-color="#ffdb26" stop-opacity="0"/><stop offset="0.19" stop-color="#fec725" stop-opacity="0.17"/><stop offset="0.6" stop-color="#fd9624" stop-opacity="0.58"/><stop offset="1" stop-color="#fc6522"/></linearGradient><linearGradient id="linear-gradient-4" x1="1.96" y1="449.44" x2="344.4" y2="487.21" gradientUnits="userSpaceOnUse"><stop offset="0.08" stop-color="#52c17e"/><stop offset="0.16" stop-color="#4cba79"/><stop offset="1" stop-color="#127244"/></linearGradient><linearGradient id="linear-gradient-5" x1="523.93" y1="464.36" x2="550.9" y2="490.15" gradientUnits="userSpaceOnUse"><stop offset="0" stop-color="#f8711d" stop-opacity="0"/><stop offset="0.11" stop-color="#f87421" stop-opacity="0.02"/><stop offset="0.23" stop-color="#f97c2e" stop-opacity="0.08"/><stop offset="0.36" stop-color="#f98943" stop-opacity="0.17"/><stop offset="0.5" stop-color="#fa9b60" stop-opacity="0.3"/><stop offset="0.65" stop-color="#fbb386" stop-opacity="0.47"/><stop offset="0.8" stop-color="#fdd0b4" stop-opacity="0.67"/><stop offset="0.95" stop-color="#fef2ea" stop-opacity="0.91"/><stop offset="1" stop-color="#fff"/></linearGradient><linearGradient id="linear-gradient-6" x1="256.27" y1="647.14" x2="606.82" y2="493.42" gradientUnits="userSpaceOnUse"><stop offset="0" stop-color="#065637"/><stop offset="0.03" stop-color="#125836"/><stop offset="0.33" stop-color="#73642e"/><stop offset="0.57" stop-color="#bb6e29"/><stop offset="0.75" stop-color="#e77425"/><stop offset="0.83" stop-color="#f87624"/></linearGradient></defs><title>LOGO_Saviora-02</title><g id="Layer_2" data-name="Layer 2"><g id="Layer_1-2" data-name="Layer 1"><g class="cls-2"><path class="cls-3" d="M614.2,13s2-13-17.52-13S403.22,6.16,193.07,64.7c0,0-69.8,15.33-116.76,41.38-34.59,19.18-56.83,44.41-57,80.05-.5,84.07,2.51,168.13,2.51,168.13s-1,82.56,29.52,131.59S127.84,579.92,202.9,632c65,40,92.06,49,116.58,51s93.07-40,115.09-56,86.56-60,135.58-125.59c26.27-35.13,38.73-78.12,43.61-114.22a455.17,455.17,0,0,0,3.44-77.92Z"/><path class="cls-4" d="M614.2,13s-.5-10.07-5.88-7.26C558.4,31.9,354.63,176.38,126.47,267.94,13.59,313.24,19.22,224.86,19.4,243.19c.59,61.27,2.37,111.07,2.37,111.07s-1,82.56,29.52,131.59S127.84,579.92,202.9,632c65,40,92.06,49,116.58,51s93.07-40,115.09-56,86.56-60,135.58-125.59c26.27-35.13,38.73-78.12,43.61-114.22a455.17,455.17,0,0,0,3.44-77.92Z"/><path class="cls-5" d="M614.2,13s-.5-10.07-5.88-7.26C558.4,31.9,354.63,176.38,126.47,267.94,13.59,313.24,19.22,224.86,19.4,243.19c.59,61.27,2.37,111.07,2.37,111.07s-1,82.56,29.52,131.59S127.84,579.92,202.9,632c65,40,92.06,49,116.58,51s93.07-40,115.09-56,86.56-60,135.58-125.59c26.27-35.13,38.73-78.12,43.61-114.22a455.17,455.17,0,0,0,3.44-77.92Z"/><rect class="cls-6" x="444.82" y="296.72" width="84.06" height="276.2"/><rect class="cls-6" x="336.74" y="374.77" width="84.06" height="276.2"/><rect class="cls-6" x="235.67" y="432.31" width="79.06" height="276.2"/><path class="cls-6" d="M82.06,340.75s131.09-11,244.18-65.55S489.86,170.12,489.86,170.12s.75-3.5-5.26-7.75-20-15.76-20-15.76-7.51-3.76,7.75-7.76,80.06-25.27,88.32-28,20-6.25,19,8.76-5.25,74-6.25,83.56-3.26,20.26-19.77,9.5-19.26-6.5-22.26-3.75a680.58,680.58,0,0,1-103.58,86.31c-60.29,40.53-143,92-283.71,119.62S82.06,340.75,82.06,340.75Z"/><path class="cls-7" d="M15,176.38s.75,88.56,108.08,210.9c77.78,88.66,207.9,172.63,304,210.9,60.8,24.23-34.53,12.76-34.53,12.76s-88.59-35.78-201.14-128C74.55,387.28,29.27,301,15,228.17S15,176.38,15,176.38Z"/><path class="cls-8" d="M17,238.17s9,49.54,48.54,109.08S197.64,505.37,371.27,601.44s-3.5,82.56-3.5,82.56-29,20-81.06,9S80.06,589.93,41,511.37,0,355.76,0,340.25,8,238.17,8,238.17Z"/><path class="cls-9" d="M473.84,553.4c17.22-10.18,100.24-52.6,123.09-129.59,47.54-160.15-125.09,4-125.09,4S417.65,548,432.81,554.9C441.18,558.69,456.63,563.58,473.84,553.4Z"/><path class="cls-10" d="M200.15,637.47S239.67,659,310.73,635s149.6-76.55,199.14-123.59,79.06-87.56,90.57-108.57,20.51,1,18,23-45.53,142.61-96.07,180.13-128.09,87.57-161.62,88.57-56.54,7.5-75.55,0S204.15,651,202.65,647A66.62,66.62,0,0,1,200.15,637.47Z"/></g><path class="cls-11" d="M795,396A162.47,162.47,0,0,1,760,383.66c-10.07-4.94-22.52-14.27-31.29-21.68l23.46-37.31c10.25,8.89,26.49,19.57,38.84,24a128.8,128.8,0,0,0,42,7.22c19.51,0,32.12-3.12,42.54-10.8a27,27,0,0,0,10.82-22.18c-.29-5.26-3.3-14.34-10-19.7-5.74-4.6-21.22-13-36.42-15.87s-41.79-11-54.75-17.2c-10.76-5.2-23.25-11.59-31.28-21.9s-15.64-20.56-16.76-41.79A70.3,70.3,0,0,1,753,158c11.62-14.3,23.28-20,38-25.25,17.88-6.32,30.15-6.32,50.28-6.32a154.46,154.46,0,0,1,31.14,3.15,141.29,141.29,0,0,1,27.6,9.36c9.08,4.14,20.53,12.32,29.3,18.62l-18.55,36.2a113.78,113.78,0,0,0-29.68-15.62c-10.19-3.76-25.36-7.78-39.36-8.52-18.38-1-30.84,1.57-40,9.39-9.56,8.16-12,14.75-12.29,19.66-.43,9,2.57,15,7.82,20.34S816,231,823.86,233.5c3.82,1.23,25.82,7,41.12,10.28,18.54,4,32,9.52,43.32,17.82S926.42,277.74,932,290c5.2,11.44,5.79,25.72,5.14,36.42-1.12,18.33-5.63,27.21-13.41,38.88s-22.29,20.7-37,26.81-27.66,9.17-48.53,9.17C825.19,401.31,806.64,398.41,795,396Z"/><path class="cls-11" d="M979.21,385.72c-11.46-10.13-22.29-19.44-22.29-44.91,0-25,8.87-33.73,19.61-43.24s28.16-17.26,53.46-17.26h56.81l4,30.34-47.1-.34c-12.57-.34-20.61,3.18-26.58,8.13-5.48,4.54-10.51,10.53-9.95,19.52.46,7.38,2.17,14.27,8.65,19s12,6.17,25.22,6.17c14.44,0,21-3.16,33.66-13.75,11.57-9.7,9.55-34.16,9.55-34.16l13.08,3.34,3.19,47.43c-3.34,5.19-16.35,17.8-27,24.47-12,7.53-29,10.55-41.39,10.55C1008.46,401,992.29,397.29,979.21,385.72ZM1083.73,280c0-12.6-4.24-27.26-25.7-35.08-3.14-1.15-10-1.78-17.43-1.94-9.55-.21-17-.08-30.63,3.87-7.41,2.15-19.32,6.38-25,10.58l-15-32.18a96.06,96.06,0,0,1,35.52-17.2c17-4.24,36.14-4.79,47.2-4.27,19.39.91,49.56,5.16,66.32,29.74,6.88,10.09,14.74,29.18,14.74,44.24V396.17h-40.89l-.05-20.67h-7.21l-.5-6Z"/><path class="cls-11" d="M1839.61,385.72c-11.46-10.13-22.29-19.44-22.29-44.91,0-25,8.87-33.73,19.61-43.24s28.16-17.26,53.46-17.26h56.81l4,30.34-47.1-.34c-12.56-.34-20.61,3.18-26.58,8.13C1872.07,323,1867,329,1867.6,338c.46,7.38,2.17,14.27,8.65,19s12,6.17,25.22,6.17c14.45,0,21-3.16,33.66-13.75,11.57-9.7,9.55-34.16,9.55-34.16l13.08,3.34L1961,366c-3.34,5.19-16.35,17.8-27,24.47C1922,398,1905,401,1892.57,401,1868.86,401,1852.69,397.29,1839.61,385.72ZM1944.13,280c0-12.6-4.24-27.26-25.69-35.08-3.14-1.15-10-1.78-17.44-1.94-9.55-.21-17-.08-30.63,3.87-7.41,2.15-19.32,6.38-25,10.58l-15-32.18a96.06,96.06,0,0,1,35.52-17.2c17-4.24,36.14-4.79,47.2-4.27,19.39.91,49.56,5.16,66.32,29.74,6.88,10.09,14.74,29.18,14.74,44.24V396.17h-40.89l0-20.67H1946l-.5-6Z"/><path class="cls-11" d="M1291.74,206.24h53.42l-76.41,189.93h-50.06l-75.75-189.93h54.69l47,130.27Z"/><path class="cls-11" d="M1363.49,206.24h52.28V396.17h-52.28Z"/><path class="cls-11" d="M1691.09,206.24h48l2.8,102.34V396h-50.81Zm53,90.55c-1.55,10.67-2.22,27.09-2.22,27.09s-5.09,9.61-5.48,7.78c-2.65-12.35-1.34-85-1.34-85,5.93-11.48,9-18.12,17-26.14,8.72-8.71,13.24-10.39,23.91-14.3,7.6-2.78,19.89-5.36,31.28-3.8v50.28C1757.2,247.13,1745.78,285.41,1744.12,296.79ZM1726.37,139.2v-3.57"/><path class="cls-11" d="M1552.44,202.3c-58.69,0-106.28,44.48-106.28,99.34S1493.75,401,1552.44,401s106.28-44.48,106.28-99.34S1611.14,202.3,1552.44,202.3Zm1.42,156.55c-30.35,0-55-25.1-55-56.08s24.62-56.08,55-56.08,55,25.11,55,56.08S1584.22,358.85,1553.86,358.85Z"/><ellipse class="cls-11" cx="1390.3" cy="151.97" rx="30.39" ry="29.05"/><path class="cls-11" d="M730.19,485.84v-8.49h44.63v8.49h-17.3v47.53h-10V485.84Z"/><path class="cls-11" d="M807.07,533.37v-56h21.17A23.63,23.63,0,0,1,839,479.58a15.59,15.59,0,0,1,6.71,6.28,18.78,18.78,0,0,1,2.3,9.42,18.07,18.07,0,0,1-2.33,9.33,15.45,15.45,0,0,1-6.81,6.09,25.07,25.07,0,0,1-10.9,2.14h-15v-8.31h14a14.82,14.82,0,0,0,6.13-1.09,7.59,7.59,0,0,0,3.59-3.16,9.89,9.89,0,0,0,1.19-5,10.4,10.4,0,0,0-1.19-5.13,7.66,7.66,0,0,0-3.61-3.25,14.58,14.58,0,0,0-6.14-1.13h-9.82v47.6Zm31.62,0L825.23,508h10.91l13.72,25.38Z"/><path class="cls-11" d="M877.34,533.37l19.63-56h12.71l20,56h-11l-9.92-29.18q-1.47-4.54-3.07-10.13t-3.55-12.84h2.26q-1.92,7.29-3.46,12.91T898,504.19l-9.73,29.18Zm11.47-13.76v-8.12h29.33v8.12Z"/><path class="cls-11" d="M981.68,534.16a25.61,25.61,0,0,1-13.26-3.46,24.1,24.1,0,0,1-9.19-9.91,37.13,37.13,0,0,1,0-30.87,24.18,24.18,0,0,1,9.21-9.9,25.42,25.42,0,0,1,13.22-3.46,27.41,27.41,0,0,1,8.68,1.33,22.79,22.79,0,0,1,7.16,3.86,20.77,20.77,0,0,1,5.17,6.14,23.64,23.64,0,0,1,2.71,8.22H995.29a13.71,13.71,0,0,0-1.68-4.48,12,12,0,0,0-3-3.32,12.58,12.58,0,0,0-4-2.07,16.17,16.17,0,0,0-4.79-.7,14.82,14.82,0,0,0-8.29,2.35,15.39,15.39,0,0,0-5.59,6.79,29.81,29.81,0,0,0,0,21.47,15.17,15.17,0,0,0,5.58,6.73,15,15,0,0,0,8.28,2.29,16,16,0,0,0,4.77-.69,13.34,13.34,0,0,0,4-2.05,12.13,12.13,0,0,0,3-3.33,13,13,0,0,0,1.71-4.49h10.12a22.54,22.54,0,0,1-2.54,7.7,22.24,22.24,0,0,1-5,6.21,22.57,22.57,0,0,1-7.18,4.15A26.3,26.3,0,0,1,981.68,534.16Z"/><path class="cls-11" d="M1038.22,533.37v-56h10V494l-.15,13.5.15,4.89v21Zm7.26-13.65V509.53q1.8-2.77,3.59-5.28t3.76-5c1.31-1.65,2.74-3.37,4.27-5.17l14.77-16.77h12.41l-23.73,26.77-.75-.19Zm27.41,13.65L1055,507l6.24-7.55,23.42,33.95Z"/><path class="cls-11" d="M1171.43,459.3v92.11h-9V459.3Z"/><path class="cls-11" d="M1272.71,534.23a28.75,28.75,0,0,1-11.42-2.08,16.91,16.91,0,0,1-7.54-6.06,17.75,17.75,0,0,1-2.88-9.6h9.85a9,9,0,0,0,6,8.17,16.23,16.23,0,0,0,6,1,15.89,15.89,0,0,0,5.88-1,9.22,9.22,0,0,0,4-2.84,6.68,6.68,0,0,0,1.44-4.25,5.3,5.3,0,0,0-1.22-3.57,9.78,9.78,0,0,0-3.49-2.44,33.17,33.17,0,0,0-5.48-1.81l-6.27-1.57q-7.33-1.82-11.28-5.49a12.58,12.58,0,0,1-4-9.63,14.54,14.54,0,0,1,2.65-8.68,17.32,17.32,0,0,1,7.29-5.79,25.66,25.66,0,0,1,10.55-2.07,24.9,24.9,0,0,1,10.56,2.08,17.05,17.05,0,0,1,7.07,5.81,15.42,15.42,0,0,1,2.67,8.61h-9.66a7.94,7.94,0,0,0-3.25-5.9,12.43,12.43,0,0,0-7.5-2.1,14,14,0,0,0-5.44,1,8.51,8.51,0,0,0-3.57,2.65,6.25,6.25,0,0,0-1.26,3.86,5.25,5.25,0,0,0,1.36,3.72,10,10,0,0,0,3.57,2.4,29.29,29.29,0,0,0,4.77,1.55l5.34,1.35a38.62,38.62,0,0,1,6.37,2.07,21.22,21.22,0,0,1,5.29,3.19,13.22,13.22,0,0,1,4.88,10.72,15.31,15.31,0,0,1-2.53,8.76,16.65,16.65,0,0,1-7.3,5.85A28.39,28.39,0,0,1,1272.71,534.23Z"/><path class="cls-11" d="M1322.19,533.37l19.63-56h12.71l20,56h-11l-9.92-29.18q-1.47-4.54-3.07-10.13T1347,481.22h2.25c-1.27,4.86-2.43,9.17-3.45,12.91s-2,7.1-2.94,10.06l-9.73,29.18Zm11.47-13.76v-8.12H1363v8.12Z"/><path class="cls-11" d="M1415.32,533.37l-20-56h10.94l10,29.17q1.4,4.37,3,10t3.59,12.79h-2.3q1.92-7.23,3.5-12.82t2.93-10l9.67-29.17h10.9l-19.63,56Z"/><path class="cls-11" d="M1478.56,533.37v-56h37v8.49H1488.6v15h24.93v8.38H1488.6v15.64h27v8.5Z"/><path class="cls-11" d="M1604.7,459.3v92.11h-9V459.3Z"/><path class="cls-11" d="M1710.38,534.16a25.73,25.73,0,0,1-13.59-3.54,24.13,24.13,0,0,1-9.13-10,37,37,0,0,1,.07-30.66,24.32,24.32,0,0,1,9.19-9.94,25.27,25.27,0,0,1,13.2-3.48,27,27,0,0,1,8.67,1.37,23.81,23.81,0,0,1,7.2,3.89,21.69,21.69,0,0,1,5.18,6,20.86,20.86,0,0,1,2.67,7.61h-10.22a14.65,14.65,0,0,0-1.83-4.09,12.41,12.41,0,0,0-2.89-3.11,12.63,12.63,0,0,0-3.87-2,16,16,0,0,0-4.76-.68,14.73,14.73,0,0,0-8.2,2.33,15.68,15.68,0,0,0-5.6,6.75,29.43,29.43,0,0,0,0,21.43,15.45,15.45,0,0,0,5.62,6.77,15,15,0,0,0,8.39,2.35,15.83,15.83,0,0,0,7.44-1.65,12,12,0,0,0,4.91-4.7,14.16,14.16,0,0,0,1.75-7.15l2.37.31h-15.34v-7.86h22.7v6.73a23.91,23.91,0,0,1-3.08,12.35,21.06,21.06,0,0,1-8.48,8.1A26,26,0,0,1,1710.38,534.16Z"/><path class="cls-11" d="M1767.61,533.37v-56h21.16a23.63,23.63,0,0,1,10.77,2.23,15.67,15.67,0,0,1,6.72,6.28,18.88,18.88,0,0,1,2.29,9.42,18.07,18.07,0,0,1-2.33,9.33,15.4,15.4,0,0,1-6.81,6.09,25,25,0,0,1-10.9,2.14h-15v-8.31h14a14.82,14.82,0,0,0,6.13-1.09,7.59,7.59,0,0,0,3.59-3.16,9.89,9.89,0,0,0,1.19-5,10.4,10.4,0,0,0-1.19-5.13,7.66,7.66,0,0,0-3.61-3.25,14.58,14.58,0,0,0-6.14-1.13h-9.82v47.6Zm31.61,0L1785.77,508h10.9l13.72,25.38Z"/><path class="cls-11" d="M1865.7,534.16a25.55,25.55,0,0,1-13.22-3.46,24.39,24.39,0,0,1-9.23-9.91,36.93,36.93,0,0,1,0-30.87,24.36,24.36,0,0,1,9.23-9.9,26.93,26.93,0,0,1,26.41,0,24.29,24.29,0,0,1,9.2,9.9,37.13,37.13,0,0,1,0,30.87,24.32,24.32,0,0,1-9.2,9.91A25.39,25.39,0,0,1,1865.7,534.16Zm0-9a14.75,14.75,0,0,0,8.1-2.27,15.11,15.11,0,0,0,5.56-6.7,25.8,25.8,0,0,0,2-10.8,26.11,26.11,0,0,0-2-10.87,15,15,0,0,0-5.56-6.71,15.54,15.54,0,0,0-16.24,0,15.38,15.38,0,0,0-5.59,6.71,29.85,29.85,0,0,0,0,21.64,15.44,15.44,0,0,0,5.59,6.69A14.67,14.67,0,0,0,1865.7,525.17Z"/><path class="cls-11" d="M1934.39,533.37l-15.12-56H1930l7.29,29.89c.53,2.15,1,4.4,1.45,6.73s.86,4.67,1.28,7l1.22,6.94h-1.69c.42-2.28.85-4.6,1.29-6.94s.9-4.68,1.38-7,1-4.58,1.5-6.73l7.59-29.89h10.64l7.56,29.89c.55,2.15,1.06,4.4,1.52,6.73s.93,4.67,1.38,7,.89,4.66,1.31,6.94H1972c.42-2.28.84-4.6,1.26-6.94s.85-4.68,1.31-7,.94-4.58,1.41-6.73l7.3-29.89H1994l-15.19,56H1967.4l-8.24-31.25c-.72-2.78-1.37-5.78-1.93-9s-1.18-6.65-1.83-10.28h2.41c-.68,3.53-1.27,6.89-1.79,10.07s-1.16,6.26-1.93,9.21l-8.24,31.25Z"/></g></g></svg>