<svg id="Layer_1" data-name="Layer 1" xmlns="http://www.w3.org/2000/svg" xmlns:xlink="http://www.w3.org/1999/xlink" viewBox="0 0 1472.98 482.04"><defs><style>.cls-1{fill:none;}.cls-2{clip-path:url(#clip-path);}.cls-3{fill:url(#linear-gradient);}.cls-4{fill:url(#linear-gradient-2);}.cls-5{fill:url(#linear-gradient-3);}.cls-6{fill:#fff;}.cls-7{fill:#bbefbb;}.cls-8{fill:url(#linear-gradient-4);}.cls-9{fill:url(#linear-gradient-5);}.cls-10{fill:url(#linear-gradient-6);}.cls-11{fill:#0c1f42;}</style><clipPath id="clip-path" transform="translate(-268.81 -791.64)"><path class="cls-1" d="M686.69,800.49s1.36-8.85-11.92-8.85-131.62,4.19-274.6,44c0,0-47.49,10.42-79.44,28.15-23.53,13.05-38.66,30.21-38.81,54.46-.34,57.2,1.7,114.39,1.7,114.39s-.68,56.17,20.09,89.53,52.08,64,103.15,99.4c44.25,27.24,62.64,33.37,79.32,34.73s63.32-27.24,78.29-38.13,58.9-40.85,92.25-85.45c17.88-23.9,26.35-53.15,29.67-77.71a309.18,309.18,0,0,0,2.34-53Z"/></clipPath><linearGradient id="linear-gradient" x1="312.32" y1="1117.03" x2="691.66" y2="898.02" gradientUnits="userSpaceOnUse"><stop offset="0" stop-color="#34aa68"/><stop offset="0.68" stop-color="#bed13f"/><stop offset="1" stop-color="#fbe32d"/></linearGradient><linearGradient id="linear-gradient-2" x1="327.29" y1="1142.98" x2="706.46" y2="924.07" gradientUnits="userSpaceOnUse"><stop offset="0" stop-color="#13915a"/><stop offset="0.68" stop-color="#b6bb3f"/><stop offset="1" stop-color="#ffce33"/></linearGradient><linearGradient id="linear-gradient-3" x1="472.38" y1="954.39" x2="673.58" y2="1103.31" gradientUnits="userSpaceOnUse"><stop offset="0" stop-color="#ffdb26" stop-opacity="0"/><stop offset="0.19" stop-color="#fec725" stop-opacity="0.17"/><stop offset="0.6" stop-color="#fd9624" stop-opacity="0.58"/><stop offset="1" stop-color="#fc6522"/></linearGradient><linearGradient id="linear-gradient-4" x1="270.15" y1="1097.42" x2="503.13" y2="1123.11" gradientUnits="userSpaceOnUse"><stop offset="0.08" stop-color="#52c17e"/><stop offset="0.16" stop-color="#4cba79"/><stop offset="1" stop-color="#127244"/></linearGradient><linearGradient id="linear-gradient-5" x1="625.27" y1="1107.57" x2="643.62" y2="1125.11" gradientUnits="userSpaceOnUse"><stop offset="0" stop-color="#f8711d" stop-opacity="0"/><stop offset="0.11" stop-color="#f87421" stop-opacity="0.02"/><stop offset="0.23" stop-color="#f97c2e" stop-opacity="0.08"/><stop offset="0.36" stop-color="#f98943" stop-opacity="0.17"/><stop offset="0.5" stop-color="#fa9b60" stop-opacity="0.3"/><stop offset="0.65" stop-color="#fbb386" stop-opacity="0.47"/><stop offset="0.8" stop-color="#fdd0b4" stop-opacity="0.67"/><stop offset="0.95" stop-color="#fef2ea" stop-opacity="0.91"/><stop offset="1" stop-color="#fff"/></linearGradient><linearGradient id="linear-gradient-6" x1="443.17" y1="1231.92" x2="681.67" y2="1127.34" gradientUnits="userSpaceOnUse"><stop offset="0" stop-color="#065637"/><stop offset="0.03" stop-color="#125836"/><stop offset="0.33" stop-color="#73642e"/><stop offset="0.57" stop-color="#bb6e29"/><stop offset="0.75" stop-color="#e77425"/><stop offset="0.83" stop-color="#f87624"/></linearGradient></defs><title>LOGO_Saviora</title><g class="cls-2"><path class="cls-3" d="M686.69,800.49s1.36-8.85-11.92-8.85-131.62,4.19-274.6,44c0,0-47.49,10.42-79.44,28.15-23.53,13.05-38.66,30.21-38.81,54.46-.34,57.2,1.7,114.39,1.7,114.39s-.68,56.17,20.09,89.53,52.08,64,103.15,99.4c44.25,27.24,62.64,33.37,79.32,34.73s63.32-27.24,78.29-38.13,58.9-40.85,92.25-85.45c17.88-23.9,26.35-53.15,29.67-77.71a309.18,309.18,0,0,0,2.34-53Z" transform="translate(-268.81 -791.64)"/><path class="cls-4" d="M686.69,800.49s-.34-6.86-4-4.94c-34,17.79-172.6,116.09-327.83,178.38-76.8,30.82-73-29.31-72.85-16.84.4,41.69,1.61,75.57,1.61,75.57s-.68,56.17,20.09,89.53,52.08,64,103.15,99.4c44.25,27.24,62.64,33.37,79.32,34.73s63.32-27.24,78.29-38.13,58.9-40.85,92.25-85.45c17.88-23.9,26.35-53.15,29.67-77.71a309.18,309.18,0,0,0,2.34-53Z" transform="translate(-268.81 -791.64)"/><path class="cls-5" d="M686.69,800.49s-.34-6.86-4-4.94c-34,17.79-172.6,116.09-327.83,178.38-76.8,30.82-73-29.31-72.85-16.84.4,41.69,1.61,75.57,1.61,75.57s-.68,56.17,20.09,89.53,52.08,64,103.15,99.4c44.25,27.24,62.64,33.37,79.32,34.73s63.32-27.24,78.29-38.13,58.9-40.85,92.25-85.45c17.88-23.9,26.35-53.15,29.67-77.71a309.18,309.18,0,0,0,2.34-53Z" transform="translate(-268.81 -791.64)"/><rect class="cls-6" x="302.64" y="201.87" width="57.19" height="187.91"/><rect class="cls-6" x="229.11" y="254.98" width="57.19" height="187.91"/><rect class="cls-6" x="160.34" y="294.13" width="53.79" height="187.91"/><path class="cls-6" d="M324.64,1023.47s89.2-7.49,166.13-44.6,111.32-71.49,111.32-71.49.51-2.38-3.57-5.28-13.62-10.72-13.62-10.72-5.11-2.55,5.28-5.28,54.46-17.19,60.08-19.06,13.62-4.25,12.94,6-3.58,50.38-4.26,56.85-2.21,13.79-13.44,6.47-13.11-4.43-15.15-2.56a462.55,462.55,0,0,1-70.47,58.73c-41,27.57-97.28,62.59-193,81.38S324.64,1023.47,324.64,1023.47Z" transform="translate(-268.81 -791.64)"/><path class="cls-7" d="M279,911.64s.51,60.25,73.53,143.49c52.92,60.31,141.45,117.44,206.81,143.48,41.37,16.49-23.49,8.69-23.49,8.69S475.61,1183,399,1120.23c-79.49-65.1-110.3-123.83-120-173.36S279,911.64,279,911.64Z" transform="translate(-268.81 -791.64)"/><path class="cls-8" d="M280.39,953.68s6.13,33.7,33,74.21,89.87,107.58,208,172.94S519,1257,519,1257s-19.75,13.61-55.15,6.13S323.28,1193,296.73,1139.55s-27.92-105.87-27.92-116.42,5.45-69.45,5.45-69.45Z" transform="translate(-268.81 -791.64)"/><path class="cls-9" d="M591.2,1168.15c11.71-6.93,68.19-35.79,83.74-88.17,32.34-109-85.1,2.72-85.1,2.72s-36.87,81.8-26.56,86.47C569,1171.74,579.48,1175.07,591.2,1168.15Z" transform="translate(-268.81 -791.64)"/><path class="cls-10" d="M405,1225.34s26.9,14.64,75.24-1.7,101.79-52.09,135.49-84.09,53.79-59.57,61.61-73.87,14,.68,12.26,15.66-31,97-65.36,122.55-87.15,59.58-110,60.26-38.47,5.11-51.4,0-55.15-29.62-56.17-32.34A46,46,0,0,1,405,1225.34Z" transform="translate(-268.81 -791.64)"/></g><path class="cls-11" d="M828.34,1114.34a123.83,123.83,0,0,1-26.72-9.36c-7.67-3.77-17.15-10.87-23.83-16.51L795.66,1060c7.81,6.77,20.18,14.91,29.58,18.3a98.41,98.41,0,0,0,32,5.49c14.87,0,24.47-2.37,32.41-8.22a20.52,20.52,0,0,0,8.24-16.9c-.22-4-2.52-10.92-7.62-15-4.37-3.5-16.16-9.9-27.75-12.09s-31.83-8.34-41.7-13.1c-8.2-4-17.71-8.83-23.83-16.68S785.11,986.17,784.26,970a53.48,53.48,0,0,1,12.08-36.94c8.85-10.89,17.73-15.27,28.94-19.23,13.61-4.82,23-4.82,38.29-4.82a117.54,117.54,0,0,1,23.72,2.4,107.55,107.55,0,0,1,21,7.13c6.92,3.15,15.64,9.38,22.32,14.18L916.51,960.3a86.81,86.81,0,0,0-22.61-11.9,109.41,109.41,0,0,0-30-6.49c-14-.73-23.48,1.19-30.46,7.15-7.28,6.22-9.19,11.24-9.36,15A19,19,0,0,0,830,979.53c4,4.05,14.28,9.14,20.26,11.06,2.91.94,19.66,5.31,31.32,7.83,14.12,3.07,24.37,7.25,33,13.58s13.81,12.3,18.06,21.66c4,8.71,4.41,19.59,3.92,27.74-.86,14-4.29,20.73-10.22,29.62s-17,15.76-28.22,20.42-21.07,7-37,7C851.31,1118.42,837.18,1116.22,828.34,1114.34Z" transform="translate(-268.81 -791.64)"/><path class="cls-11" d="M968.64,1106.55c-8.73-7.72-17-14.81-17-34.21,0-19,6.75-25.69,14.94-32.94s21.44-13.15,40.72-13.15h43.28l3.06,23.11-35.87-.26c-9.58-.25-15.7,2.43-20.25,6.2-4.18,3.46-8,8-7.58,14.87.35,5.62,1.65,10.87,6.59,14.44s9.14,4.7,19.2,4.7c11,0,16-2.41,25.65-10.47,8.81-7.4,7.27-26,7.27-26l10,2.55,2.42,36.13c-2.54,4-12.45,13.55-20.55,18.64-9.15,5.73-22.08,8-31.53,8C990.92,1118.17,978.6,1115.36,968.64,1106.55Zm79.62-80.55c0-9.6-3.24-20.77-19.58-26.73-2.39-.87-7.65-1.35-13.28-1.47a66.64,66.64,0,0,0-23.33,3c-5.65,1.63-14.72,4.86-19.05,8.06l-11.4-24.51a73,73,0,0,1,27.06-13.11c13-3.23,27.52-3.65,36-3.25,14.76.7,37.74,3.93,50.51,22.65,5.24,7.69,11.23,22.23,11.23,33.71v90.21h-31.15l0-15.75h-5.49l-.38-4.59Z" transform="translate(-268.81 -791.64)"/><path class="cls-11" d="M1624.05,1106.55c-8.73-7.72-17-14.81-17-34.21,0-19,6.75-25.69,14.93-32.94s21.45-13.15,40.72-13.15H1706l3.07,23.11-35.88-.26c-9.57-.25-15.7,2.43-20.25,6.2-4.17,3.46-8,8-7.58,14.87.36,5.62,1.65,10.87,6.59,14.44s9.14,4.7,19.21,4.7c11,0,16-2.41,25.64-10.47,8.82-7.4,7.28-26,7.28-26l10,2.55,2.43,36.13c-2.54,4-12.45,13.55-20.55,18.64-9.15,5.73-22.09,8-31.54,8C1646.33,1118.17,1634,1115.36,1624.05,1106.55Zm79.62-80.55c0-9.6-3.23-20.77-19.57-26.73-2.4-.87-7.65-1.35-13.29-1.47a66.59,66.59,0,0,0-23.32,3c-5.65,1.63-14.73,4.86-19,8.06L1617,984.3a73.07,73.07,0,0,1,27.07-13.11c13-3.23,27.52-3.65,36-3.25,14.77.7,37.75,3.93,50.51,22.65,5.25,7.69,11.24,22.23,11.24,33.71v90.21h-31.15l0-15.75h-5.49l-.39-4.59Z" transform="translate(-268.81 -791.64)"/><path class="cls-11" d="M1206.71,969.83h40.69l-58.21,144.68h-38.13l-57.7-144.68H1135l35.84,99.23Z" transform="translate(-268.81 -791.64)"/><path class="cls-11" d="M1261.36,969.83h39.83v144.68h-39.83Z" transform="translate(-268.81 -791.64)"/><path class="cls-11" d="M1510.91,969.83h36.58l2.13,78v66.55h-38.71Zm40.4,69c-1.18,8.12-1.69,20.63-1.69,20.63s-3.87,7.32-4.17,5.93c-2-9.41-1-64.73-1-64.73,4.51-8.75,6.82-13.81,12.93-19.92,6.64-6.64,10.08-7.92,18.21-10.89,5.79-2.12,15.15-4.09,23.83-2.9v38.3C1561.28,1001,1552.58,1030.14,1551.31,1038.81Zm-13.52-120V916" transform="translate(-268.81 -791.64)"/><path class="cls-11" d="M1405.3,966.83c-44.71,0-81,33.88-81,75.67s36.25,75.67,81,75.67,81-33.88,81-75.67S1450,966.83,1405.3,966.83Zm1.08,119.25c-23.12,0-41.87-19.12-41.87-42.72s18.75-42.72,41.87-42.72,41.88,19.13,41.88,42.72S1429.51,1086.08,1406.38,1086.08Z" transform="translate(-268.81 -791.64)"/><ellipse class="cls-11" cx="1012.97" cy="136.85" rx="23.15" ry="22.13"/></svg>